<mxfile host="app.diagrams.net" modified="2023-07-23T18:26:47.753Z" agent="Mozilla/5.0 (Windows NT 10.0; Win64; x64; rv:109.0) Gecko/20100101 Firefox/115.0" etag="SeAHSf0QqfiKet677qL3" version="21.6.5" type="device">
  <diagram name="PÃ¡gina-1" id="zM4AHsppUV11jvB73Zen">
    <mxGraphModel dx="1195" dy="1791" grid="1" gridSize="10" guides="1" tooltips="1" connect="1" arrows="1" fold="1" page="1" pageScale="1" pageWidth="827" pageHeight="1169" math="0" shadow="0">
      <root>
        <mxCell id="0" />
        <mxCell id="1" parent="0" />
        <mxCell id="gv2Mm_Y-joqYlYkA0Ygy-3" style="rounded=0;orthogonalLoop=1;jettySize=auto;html=1;entryX=1;entryY=0.5;entryDx=0;entryDy=0;" parent="1" source="gv2Mm_Y-joqYlYkA0Ygy-1" target="gv2Mm_Y-joqYlYkA0Ygy-2" edge="1">
          <mxGeometry relative="1" as="geometry" />
        </mxCell>
        <mxCell id="gv2Mm_Y-joqYlYkA0Ygy-4" value="&amp;nbsp;haTrabajado&amp;nbsp; " style="edgeLabel;html=1;align=center;verticalAlign=middle;resizable=0;points=[];labelBackgroundColor=#FFFFFF;fontColor=#000000;" parent="gv2Mm_Y-joqYlYkA0Ygy-3" vertex="1" connectable="0">
          <mxGeometry x="-0.0366" relative="1" as="geometry">
            <mxPoint x="-1" as="offset" />
          </mxGeometry>
        </mxCell>
        <mxCell id="gv2Mm_Y-joqYlYkA0Ygy-13" style="edgeStyle=orthogonalEdgeStyle;rounded=0;orthogonalLoop=1;jettySize=auto;html=1;entryX=0.5;entryY=1;entryDx=0;entryDy=0;" parent="1" source="gv2Mm_Y-joqYlYkA0Ygy-1" target="gv2Mm_Y-joqYlYkA0Ygy-11" edge="1">
          <mxGeometry relative="1" as="geometry" />
        </mxCell>
        <mxCell id="gv2Mm_Y-joqYlYkA0Ygy-14" value="&lt;div&gt;&amp;nbsp;tieneRedSocial&amp;nbsp; &lt;br&gt;&lt;/div&gt;" style="edgeLabel;html=1;align=center;verticalAlign=middle;resizable=0;points=[];labelBackgroundColor=#FFFFFF;fontColor=#000000;" parent="gv2Mm_Y-joqYlYkA0Ygy-13" vertex="1" connectable="0">
          <mxGeometry y="-3" relative="1" as="geometry">
            <mxPoint as="offset" />
          </mxGeometry>
        </mxCell>
        <mxCell id="gv2Mm_Y-joqYlYkA0Ygy-30" style="rounded=0;orthogonalLoop=1;jettySize=auto;html=1;exitX=1;exitY=0;exitDx=0;exitDy=0;entryX=0;entryY=1;entryDx=0;entryDy=0;" parent="1" source="gv2Mm_Y-joqYlYkA0Ygy-1" target="gv2Mm_Y-joqYlYkA0Ygy-10" edge="1">
          <mxGeometry relative="1" as="geometry" />
        </mxCell>
        <mxCell id="gv2Mm_Y-joqYlYkA0Ygy-37" value="perteneceAPartidoPolitico" style="edgeLabel;html=1;align=center;verticalAlign=middle;resizable=0;points=[];" parent="gv2Mm_Y-joqYlYkA0Ygy-30" vertex="1" connectable="0">
          <mxGeometry x="-0.2049" y="2" relative="1" as="geometry">
            <mxPoint x="8" y="-5" as="offset" />
          </mxGeometry>
        </mxCell>
        <mxCell id="gv2Mm_Y-joqYlYkA0Ygy-38" style="rounded=0;orthogonalLoop=1;jettySize=auto;html=1;entryX=0;entryY=0;entryDx=0;entryDy=0;" parent="1" source="gv2Mm_Y-joqYlYkA0Ygy-1" target="gv2Mm_Y-joqYlYkA0Ygy-8" edge="1">
          <mxGeometry relative="1" as="geometry" />
        </mxCell>
        <mxCell id="gv2Mm_Y-joqYlYkA0Ygy-48" value="haFinalizado" style="edgeLabel;html=1;align=center;verticalAlign=middle;resizable=0;points=[];" parent="gv2Mm_Y-joqYlYkA0Ygy-38" vertex="1" connectable="0">
          <mxGeometry x="-0.015" y="-2" relative="1" as="geometry">
            <mxPoint x="-1" as="offset" />
          </mxGeometry>
        </mxCell>
        <mxCell id="gv2Mm_Y-joqYlYkA0Ygy-39" style="edgeStyle=orthogonalEdgeStyle;rounded=0;orthogonalLoop=1;jettySize=auto;html=1;entryX=0;entryY=0.5;entryDx=0;entryDy=0;" parent="1" source="gv2Mm_Y-joqYlYkA0Ygy-1" target="gv2Mm_Y-joqYlYkA0Ygy-9" edge="1">
          <mxGeometry relative="1" as="geometry" />
        </mxCell>
        <mxCell id="gv2Mm_Y-joqYlYkA0Ygy-40" value="&lt;div&gt;&amp;nbsp;postuloPorDistrito&amp;nbsp; &lt;br&gt;&lt;/div&gt;" style="edgeLabel;html=1;align=center;verticalAlign=middle;resizable=0;points=[];" parent="gv2Mm_Y-joqYlYkA0Ygy-39" vertex="1" connectable="0">
          <mxGeometry x="-0.1857" y="-1" relative="1" as="geometry">
            <mxPoint x="13" y="-1" as="offset" />
          </mxGeometry>
        </mxCell>
        <mxCell id="gv2Mm_Y-joqYlYkA0Ygy-52" style="rounded=0;orthogonalLoop=1;jettySize=auto;html=1;exitX=0;exitY=0.5;exitDx=0;exitDy=0;entryX=1;entryY=0.5;entryDx=0;entryDy=0;" parent="1" source="gv2Mm_Y-joqYlYkA0Ygy-1" target="gv2Mm_Y-joqYlYkA0Ygy-49" edge="1">
          <mxGeometry relative="1" as="geometry" />
        </mxCell>
        <mxCell id="gv2Mm_Y-joqYlYkA0Ygy-55" value="nombre" style="edgeLabel;html=1;align=center;verticalAlign=middle;resizable=0;points=[];" parent="gv2Mm_Y-joqYlYkA0Ygy-52" vertex="1" connectable="0">
          <mxGeometry x="-0.0274" y="2" relative="1" as="geometry">
            <mxPoint as="offset" />
          </mxGeometry>
        </mxCell>
        <mxCell id="gv2Mm_Y-joqYlYkA0Ygy-53" style="rounded=0;orthogonalLoop=1;jettySize=auto;html=1;entryX=1;entryY=0.5;entryDx=0;entryDy=0;" parent="1" source="gv2Mm_Y-joqYlYkA0Ygy-1" target="gv2Mm_Y-joqYlYkA0Ygy-50" edge="1">
          <mxGeometry relative="1" as="geometry" />
        </mxCell>
        <mxCell id="gv2Mm_Y-joqYlYkA0Ygy-56" value="edad" style="edgeLabel;html=1;align=center;verticalAlign=middle;resizable=0;points=[];" parent="gv2Mm_Y-joqYlYkA0Ygy-53" vertex="1" connectable="0">
          <mxGeometry x="-0.1758" y="-1" relative="1" as="geometry">
            <mxPoint as="offset" />
          </mxGeometry>
        </mxCell>
        <mxCell id="gv2Mm_Y-joqYlYkA0Ygy-54" style="rounded=0;orthogonalLoop=1;jettySize=auto;html=1;" parent="1" source="gv2Mm_Y-joqYlYkA0Ygy-1" target="gv2Mm_Y-joqYlYkA0Ygy-51" edge="1">
          <mxGeometry relative="1" as="geometry" />
        </mxCell>
        <mxCell id="gv2Mm_Y-joqYlYkA0Ygy-57" value="genero" style="edgeLabel;html=1;align=center;verticalAlign=middle;resizable=0;points=[];" parent="gv2Mm_Y-joqYlYkA0Ygy-54" vertex="1" connectable="0">
          <mxGeometry x="-0.0423" y="1" relative="1" as="geometry">
            <mxPoint as="offset" />
          </mxGeometry>
        </mxCell>
        <mxCell id="gv2Mm_Y-joqYlYkA0Ygy-1" value="&lt;font face=&quot;Verdana&quot;&gt;Person&lt;/font&gt;" style="ellipse;whiteSpace=wrap;html=1;aspect=fixed;fillColor=#0050ef;strokeColor=#000000;fontColor=#ffffff;" parent="1" vertex="1">
          <mxGeometry x="320" y="200" width="80" height="80" as="geometry" />
        </mxCell>
        <mxCell id="gv2Mm_Y-joqYlYkA0Ygy-2" value="&lt;font face=&quot;Verdana&quot;&gt;Cargo&lt;/font&gt;" style="ellipse;whiteSpace=wrap;html=1;aspect=fixed;fillColor=#0050ef;strokeColor=#000000;fontColor=#ffffff;" parent="1" vertex="1">
          <mxGeometry x="155" y="150" width="80" height="80" as="geometry" />
        </mxCell>
        <mxCell id="gv2Mm_Y-joqYlYkA0Ygy-6" style="rounded=0;orthogonalLoop=1;jettySize=auto;html=1;entryX=0;entryY=0;entryDx=0;entryDy=0;" parent="1" source="gv2Mm_Y-joqYlYkA0Ygy-5" target="gv2Mm_Y-joqYlYkA0Ygy-1" edge="1">
          <mxGeometry relative="1" as="geometry" />
        </mxCell>
        <mxCell id="gv2Mm_Y-joqYlYkA0Ygy-7" value="&amp;nbsp;subClassOf&amp;nbsp; " style="edgeLabel;html=1;align=center;verticalAlign=middle;resizable=0;points=[];fontColor=#000000;labelBackgroundColor=#FFFFFF;" parent="gv2Mm_Y-joqYlYkA0Ygy-6" vertex="1" connectable="0">
          <mxGeometry x="-0.1319" y="3" relative="1" as="geometry">
            <mxPoint as="offset" />
          </mxGeometry>
        </mxCell>
        <mxCell id="gv2Mm_Y-joqYlYkA0Ygy-5" value="&lt;font face=&quot;Verdana&quot;&gt;Candidato&lt;/font&gt;" style="ellipse;whiteSpace=wrap;html=1;aspect=fixed;fillColor=#0050ef;strokeColor=#000000;fontColor=#ffffff;" parent="1" vertex="1">
          <mxGeometry x="210" y="50" width="80" height="80" as="geometry" />
        </mxCell>
        <mxCell id="gv2Mm_Y-joqYlYkA0Ygy-8" value="&lt;font face=&quot;Verdana&quot;&gt;Profesion&lt;/font&gt;" style="ellipse;whiteSpace=wrap;html=1;aspect=fixed;fillColor=#0050ef;strokeColor=#000000;fontColor=#ffffff;" parent="1" vertex="1">
          <mxGeometry x="460" y="300" width="80" height="80" as="geometry" />
        </mxCell>
        <mxCell id="gv2Mm_Y-joqYlYkA0Ygy-9" value="&lt;font style=&quot;font-size: 12px;&quot; face=&quot;Verdana&quot;&gt;Distrito&lt;/font&gt;" style="ellipse;whiteSpace=wrap;html=1;aspect=fixed;fillColor=#0050ef;strokeColor=#000000;fontColor=#ffffff;" parent="1" vertex="1">
          <mxGeometry x="540" y="200" width="80" height="80" as="geometry" />
        </mxCell>
        <mxCell id="gv2Mm_Y-joqYlYkA0Ygy-10" value="&lt;font style=&quot;font-size: 10px;&quot; face=&quot;Verdana&quot;&gt;PartidoPolitico&lt;/font&gt;" style="ellipse;whiteSpace=wrap;html=1;aspect=fixed;fillColor=#0050ef;strokeColor=#000000;fontColor=#ffffff;" parent="1" vertex="1">
          <mxGeometry x="460" y="60" width="80" height="80" as="geometry" />
        </mxCell>
        <mxCell id="gv2Mm_Y-joqYlYkA0Ygy-22" style="rounded=0;orthogonalLoop=1;jettySize=auto;html=1;exitX=1;exitY=0;exitDx=0;exitDy=0;entryX=0.25;entryY=1;entryDx=0;entryDy=0;" parent="1" source="gv2Mm_Y-joqYlYkA0Ygy-11" target="gv2Mm_Y-joqYlYkA0Ygy-19" edge="1">
          <mxGeometry relative="1" as="geometry" />
        </mxCell>
        <mxCell id="gv2Mm_Y-joqYlYkA0Ygy-29" value="twitter" style="edgeLabel;html=1;align=center;verticalAlign=middle;resizable=0;points=[];" parent="gv2Mm_Y-joqYlYkA0Ygy-22" vertex="1" connectable="0">
          <mxGeometry x="-0.1442" y="-4" relative="1" as="geometry">
            <mxPoint as="offset" />
          </mxGeometry>
        </mxCell>
        <mxCell id="gv2Mm_Y-joqYlYkA0Ygy-23" style="rounded=0;orthogonalLoop=1;jettySize=auto;html=1;" parent="1" source="gv2Mm_Y-joqYlYkA0Ygy-11" target="gv2Mm_Y-joqYlYkA0Ygy-18" edge="1">
          <mxGeometry relative="1" as="geometry" />
        </mxCell>
        <mxCell id="gv2Mm_Y-joqYlYkA0Ygy-28" value="homepage" style="edgeLabel;html=1;align=center;verticalAlign=middle;resizable=0;points=[];" parent="gv2Mm_Y-joqYlYkA0Ygy-23" vertex="1" connectable="0">
          <mxGeometry x="-0.1239" relative="1" as="geometry">
            <mxPoint as="offset" />
          </mxGeometry>
        </mxCell>
        <mxCell id="gv2Mm_Y-joqYlYkA0Ygy-24" style="rounded=0;orthogonalLoop=1;jettySize=auto;html=1;entryX=0.5;entryY=1;entryDx=0;entryDy=0;" parent="1" source="gv2Mm_Y-joqYlYkA0Ygy-11" target="gv2Mm_Y-joqYlYkA0Ygy-17" edge="1">
          <mxGeometry relative="1" as="geometry" />
        </mxCell>
        <mxCell id="gv2Mm_Y-joqYlYkA0Ygy-27" value="facebook" style="edgeLabel;html=1;align=center;verticalAlign=middle;resizable=0;points=[];" parent="gv2Mm_Y-joqYlYkA0Ygy-24" vertex="1" connectable="0">
          <mxGeometry x="0.0388" y="1" relative="1" as="geometry">
            <mxPoint as="offset" />
          </mxGeometry>
        </mxCell>
        <mxCell id="gv2Mm_Y-joqYlYkA0Ygy-25" style="rounded=0;orthogonalLoop=1;jettySize=auto;html=1;exitX=0;exitY=0;exitDx=0;exitDy=0;entryX=0.75;entryY=1;entryDx=0;entryDy=0;" parent="1" source="gv2Mm_Y-joqYlYkA0Ygy-11" target="gv2Mm_Y-joqYlYkA0Ygy-16" edge="1">
          <mxGeometry relative="1" as="geometry" />
        </mxCell>
        <mxCell id="gv2Mm_Y-joqYlYkA0Ygy-26" value="instagram" style="edgeLabel;html=1;align=center;verticalAlign=middle;resizable=0;points=[];fontColor=#000000;labelBackgroundColor=#FFFFFF;" parent="gv2Mm_Y-joqYlYkA0Ygy-25" vertex="1" connectable="0">
          <mxGeometry x="0.1071" y="-1" relative="1" as="geometry">
            <mxPoint as="offset" />
          </mxGeometry>
        </mxCell>
        <mxCell id="gv2Mm_Y-joqYlYkA0Ygy-11" value="&lt;font face=&quot;Verdana&quot;&gt;RedSocial&lt;/font&gt;" style="ellipse;whiteSpace=wrap;html=1;aspect=fixed;fillColor=#0050ef;strokeColor=#000000;fontColor=#ffffff;" parent="1" vertex="1">
          <mxGeometry x="320" width="80" height="80" as="geometry" />
        </mxCell>
        <mxCell id="gv2Mm_Y-joqYlYkA0Ygy-32" style="rounded=0;orthogonalLoop=1;jettySize=auto;html=1;exitX=0;exitY=1;exitDx=0;exitDy=0;entryX=1;entryY=0;entryDx=0;entryDy=0;" parent="1" source="gv2Mm_Y-joqYlYkA0Ygy-12" target="gv2Mm_Y-joqYlYkA0Ygy-10" edge="1">
          <mxGeometry relative="1" as="geometry" />
        </mxCell>
        <mxCell id="gv2Mm_Y-joqYlYkA0Ygy-36" value="tienePartidoPolitico" style="edgeLabel;html=1;align=center;verticalAlign=middle;resizable=0;points=[];" parent="gv2Mm_Y-joqYlYkA0Ygy-32" vertex="1" connectable="0">
          <mxGeometry x="0.0029" y="1" relative="1" as="geometry">
            <mxPoint x="1" as="offset" />
          </mxGeometry>
        </mxCell>
        <mxCell id="gv2Mm_Y-joqYlYkA0Ygy-34" style="edgeStyle=orthogonalEdgeStyle;rounded=0;orthogonalLoop=1;jettySize=auto;html=1;" parent="1" source="gv2Mm_Y-joqYlYkA0Ygy-12" target="gv2Mm_Y-joqYlYkA0Ygy-33" edge="1">
          <mxGeometry relative="1" as="geometry" />
        </mxCell>
        <mxCell id="gv2Mm_Y-joqYlYkA0Ygy-35" value="&lt;div&gt;nombrePacto&lt;/div&gt;" style="edgeLabel;html=1;align=center;verticalAlign=middle;resizable=0;points=[];" parent="gv2Mm_Y-joqYlYkA0Ygy-34" vertex="1" connectable="0">
          <mxGeometry x="-0.08" y="-2" relative="1" as="geometry">
            <mxPoint as="offset" />
          </mxGeometry>
        </mxCell>
        <mxCell id="gv2Mm_Y-joqYlYkA0Ygy-12" value="&lt;font face=&quot;Verdana&quot;&gt;Pacto&lt;/font&gt;" style="ellipse;whiteSpace=wrap;html=1;aspect=fixed;fillColor=#0050ef;strokeColor=#000000;fontColor=#ffffff;" parent="1" vertex="1">
          <mxGeometry x="570" y="-60" width="80" height="80" as="geometry" />
        </mxCell>
        <mxCell id="gv2Mm_Y-joqYlYkA0Ygy-16" value="String" style="rounded=0;whiteSpace=wrap;html=1;strokeColor=#000000;fillColor=#fdc502;" parent="1" vertex="1">
          <mxGeometry x="230" y="-50" width="70" height="20" as="geometry" />
        </mxCell>
        <mxCell id="gv2Mm_Y-joqYlYkA0Ygy-17" value="String" style="rounded=0;whiteSpace=wrap;html=1;strokeColor=#000000;fillColor=#fdc502;" parent="1" vertex="1">
          <mxGeometry x="280" y="-100" width="70" height="20" as="geometry" />
        </mxCell>
        <mxCell id="gv2Mm_Y-joqYlYkA0Ygy-18" value="String" style="rounded=0;whiteSpace=wrap;html=1;strokeColor=#000000;fillColor=#fdc502;" parent="1" vertex="1">
          <mxGeometry x="370" y="-100" width="70" height="20" as="geometry" />
        </mxCell>
        <mxCell id="gv2Mm_Y-joqYlYkA0Ygy-19" value="String" style="rounded=0;whiteSpace=wrap;html=1;strokeColor=#000000;fillColor=#fdc502;" parent="1" vertex="1">
          <mxGeometry x="420" y="-50" width="70" height="20" as="geometry" />
        </mxCell>
        <mxCell id="gv2Mm_Y-joqYlYkA0Ygy-33" value="String" style="rounded=0;whiteSpace=wrap;html=1;strokeColor=#000000;fillColor=#fdc502;" parent="1" vertex="1">
          <mxGeometry x="575" y="-120" width="70" height="20" as="geometry" />
        </mxCell>
        <mxCell id="gv2Mm_Y-joqYlYkA0Ygy-49" value="String" style="rounded=0;whiteSpace=wrap;html=1;strokeColor=#000000;fillColor=#fdc502;" parent="1" vertex="1">
          <mxGeometry x="160" y="250" width="70" height="20" as="geometry" />
        </mxCell>
        <mxCell id="gv2Mm_Y-joqYlYkA0Ygy-50" value="String" style="rounded=0;whiteSpace=wrap;html=1;strokeColor=#000000;fillColor=#fdc502;" parent="1" vertex="1">
          <mxGeometry x="165" y="290" width="70" height="20" as="geometry" />
        </mxCell>
        <mxCell id="gv2Mm_Y-joqYlYkA0Ygy-51" value="String" style="rounded=0;whiteSpace=wrap;html=1;strokeColor=#000000;fillColor=#fdc502;" parent="1" vertex="1">
          <mxGeometry x="200" y="330" width="70" height="20" as="geometry" />
        </mxCell>
        <mxCell id="gv2Mm_Y-joqYlYkA0Ygy-87" style="rounded=0;orthogonalLoop=1;jettySize=auto;html=1;entryX=1;entryY=0;entryDx=0;entryDy=0;" parent="1" source="gv2Mm_Y-joqYlYkA0Ygy-91" target="gv2Mm_Y-joqYlYkA0Ygy-94" edge="1">
          <mxGeometry relative="1" as="geometry" />
        </mxCell>
        <mxCell id="gv2Mm_Y-joqYlYkA0Ygy-88" value="&amp;nbsp;perteneceAComision&amp;nbsp; " style="edgeLabel;html=1;align=center;verticalAlign=middle;resizable=0;points=[];" parent="gv2Mm_Y-joqYlYkA0Ygy-87" vertex="1" connectable="0">
          <mxGeometry x="-0.05" y="3" relative="1" as="geometry">
            <mxPoint x="-4" y="-3" as="offset" />
          </mxGeometry>
        </mxCell>
        <mxCell id="gv2Mm_Y-joqYlYkA0Ygy-89" style="rounded=0;orthogonalLoop=1;jettySize=auto;html=1;" parent="1" source="gv2Mm_Y-joqYlYkA0Ygy-91" target="gv2Mm_Y-joqYlYkA0Ygy-106" edge="1">
          <mxGeometry relative="1" as="geometry" />
        </mxCell>
        <mxCell id="gv2Mm_Y-joqYlYkA0Ygy-90" value="&amp;nbsp;participaEnDiscurso&amp;nbsp; " style="edgeLabel;html=1;align=center;verticalAlign=middle;resizable=0;points=[];" parent="gv2Mm_Y-joqYlYkA0Ygy-89" vertex="1" connectable="0">
          <mxGeometry x="-0.2375" y="-2" relative="1" as="geometry">
            <mxPoint x="9" y="-2" as="offset" />
          </mxGeometry>
        </mxCell>
        <mxCell id="gv2Mm_Y-joqYlYkA0Ygy-116" style="edgeStyle=orthogonalEdgeStyle;rounded=0;orthogonalLoop=1;jettySize=auto;html=1;" parent="1" source="gv2Mm_Y-joqYlYkA0Ygy-91" target="gv2Mm_Y-joqYlYkA0Ygy-1" edge="1">
          <mxGeometry relative="1" as="geometry" />
        </mxCell>
        <mxCell id="gv2Mm_Y-joqYlYkA0Ygy-117" value="&lt;div&gt;subClassOf&lt;/div&gt;" style="edgeLabel;html=1;align=center;verticalAlign=middle;resizable=0;points=[];" parent="gv2Mm_Y-joqYlYkA0Ygy-116" vertex="1" connectable="0">
          <mxGeometry x="0.1833" y="-1" relative="1" as="geometry">
            <mxPoint y="21" as="offset" />
          </mxGeometry>
        </mxCell>
        <mxCell id="gv2Mm_Y-joqYlYkA0Ygy-91" value="&lt;font style=&quot;font-size: 11px;&quot; face=&quot;Verdana&quot;&gt;Constituyente&lt;/font&gt;" style="ellipse;whiteSpace=wrap;html=1;aspect=fixed;fillColor=#0050ef;strokeColor=#000000;fontColor=#ffffff;" parent="1" vertex="1">
          <mxGeometry x="320" y="400" width="80" height="80" as="geometry" />
        </mxCell>
        <mxCell id="gv2Mm_Y-joqYlYkA0Ygy-92" style="rounded=0;orthogonalLoop=1;jettySize=auto;html=1;entryX=0.5;entryY=0;entryDx=0;entryDy=0;" parent="1" source="gv2Mm_Y-joqYlYkA0Ygy-94" target="gv2Mm_Y-joqYlYkA0Ygy-110" edge="1">
          <mxGeometry relative="1" as="geometry" />
        </mxCell>
        <mxCell id="gv2Mm_Y-joqYlYkA0Ygy-93" value="nombreComision" style="edgeLabel;html=1;align=center;verticalAlign=middle;resizable=0;points=[];" parent="gv2Mm_Y-joqYlYkA0Ygy-92" vertex="1" connectable="0">
          <mxGeometry x="-0.24" y="-1" relative="1" as="geometry">
            <mxPoint as="offset" />
          </mxGeometry>
        </mxCell>
        <mxCell id="gv2Mm_Y-joqYlYkA0Ygy-94" value="&lt;font face=&quot;Verdana&quot;&gt;Comision&lt;/font&gt;" style="ellipse;whiteSpace=wrap;html=1;aspect=fixed;fillColor=#0050ef;strokeColor=#000000;fontColor=#ffffff;" parent="1" vertex="1">
          <mxGeometry x="200" y="500" width="80" height="80" as="geometry" />
        </mxCell>
        <mxCell id="gv2Mm_Y-joqYlYkA0Ygy-95" style="rounded=0;orthogonalLoop=1;jettySize=auto;html=1;" parent="1" source="gv2Mm_Y-joqYlYkA0Ygy-106" target="gv2Mm_Y-joqYlYkA0Ygy-109" edge="1">
          <mxGeometry relative="1" as="geometry" />
        </mxCell>
        <mxCell id="gv2Mm_Y-joqYlYkA0Ygy-96" value="tieneTopico" style="edgeLabel;html=1;align=center;verticalAlign=middle;resizable=0;points=[];" parent="gv2Mm_Y-joqYlYkA0Ygy-95" vertex="1" connectable="0">
          <mxGeometry x="-0.06" relative="1" as="geometry">
            <mxPoint as="offset" />
          </mxGeometry>
        </mxCell>
        <mxCell id="gv2Mm_Y-joqYlYkA0Ygy-97" style="rounded=0;orthogonalLoop=1;jettySize=auto;html=1;exitX=1;exitY=0.5;exitDx=0;exitDy=0;entryX=0;entryY=0.25;entryDx=0;entryDy=0;" parent="1" source="gv2Mm_Y-joqYlYkA0Ygy-106" target="gv2Mm_Y-joqYlYkA0Ygy-111" edge="1">
          <mxGeometry relative="1" as="geometry" />
        </mxCell>
        <mxCell id="gv2Mm_Y-joqYlYkA0Ygy-98" value="tipoDiscurso" style="edgeLabel;html=1;align=center;verticalAlign=middle;resizable=0;points=[];" parent="gv2Mm_Y-joqYlYkA0Ygy-97" vertex="1" connectable="0">
          <mxGeometry x="0.4116" relative="1" as="geometry">
            <mxPoint x="-20" y="-4" as="offset" />
          </mxGeometry>
        </mxCell>
        <mxCell id="gv2Mm_Y-joqYlYkA0Ygy-99" style="rounded=0;orthogonalLoop=1;jettySize=auto;html=1;entryX=0;entryY=0.75;entryDx=0;entryDy=0;" parent="1" source="gv2Mm_Y-joqYlYkA0Ygy-106" target="gv2Mm_Y-joqYlYkA0Ygy-114" edge="1">
          <mxGeometry relative="1" as="geometry" />
        </mxCell>
        <mxCell id="gv2Mm_Y-joqYlYkA0Ygy-100" value="duracion" style="edgeLabel;html=1;align=center;verticalAlign=middle;resizable=0;points=[];" parent="gv2Mm_Y-joqYlYkA0Ygy-99" vertex="1" connectable="0">
          <mxGeometry x="-0.3721" y="3" relative="1" as="geometry">
            <mxPoint x="12" y="-3" as="offset" />
          </mxGeometry>
        </mxCell>
        <mxCell id="gv2Mm_Y-joqYlYkA0Ygy-101" style="rounded=0;orthogonalLoop=1;jettySize=auto;html=1;entryX=0.5;entryY=1;entryDx=0;entryDy=0;" parent="1" source="gv2Mm_Y-joqYlYkA0Ygy-106" target="gv2Mm_Y-joqYlYkA0Ygy-112" edge="1">
          <mxGeometry relative="1" as="geometry" />
        </mxCell>
        <mxCell id="gv2Mm_Y-joqYlYkA0Ygy-102" value="texto" style="edgeLabel;html=1;align=center;verticalAlign=middle;resizable=0;points=[];" parent="gv2Mm_Y-joqYlYkA0Ygy-101" vertex="1" connectable="0">
          <mxGeometry x="-0.2679" relative="1" as="geometry">
            <mxPoint x="2" y="-8" as="offset" />
          </mxGeometry>
        </mxCell>
        <mxCell id="gv2Mm_Y-joqYlYkA0Ygy-103" style="rounded=0;orthogonalLoop=1;jettySize=auto;html=1;entryX=0.25;entryY=1;entryDx=0;entryDy=0;" parent="1" source="gv2Mm_Y-joqYlYkA0Ygy-106" target="gv2Mm_Y-joqYlYkA0Ygy-113" edge="1">
          <mxGeometry relative="1" as="geometry" />
        </mxCell>
        <mxCell id="gv2Mm_Y-joqYlYkA0Ygy-104" value="Text" style="edgeLabel;html=1;align=center;verticalAlign=middle;resizable=0;points=[];" parent="gv2Mm_Y-joqYlYkA0Ygy-103" vertex="1" connectable="0">
          <mxGeometry x="0.041" relative="1" as="geometry">
            <mxPoint as="offset" />
          </mxGeometry>
        </mxCell>
        <mxCell id="gv2Mm_Y-joqYlYkA0Ygy-105" value="numeroSesion" style="edgeLabel;html=1;align=center;verticalAlign=middle;resizable=0;points=[];" parent="gv2Mm_Y-joqYlYkA0Ygy-103" vertex="1" connectable="0">
          <mxGeometry x="0.0183" y="-1" relative="1" as="geometry">
            <mxPoint as="offset" />
          </mxGeometry>
        </mxCell>
        <mxCell id="gv2Mm_Y-joqYlYkA0Ygy-106" value="&lt;font face=&quot;Verdana&quot;&gt;Discurso&lt;/font&gt;" style="ellipse;whiteSpace=wrap;html=1;aspect=fixed;fillColor=#0050ef;strokeColor=#000000;fontColor=#ffffff;" parent="1" vertex="1">
          <mxGeometry x="440" y="500" width="80" height="80" as="geometry" />
        </mxCell>
        <mxCell id="gv2Mm_Y-joqYlYkA0Ygy-107" style="rounded=0;orthogonalLoop=1;jettySize=auto;html=1;entryX=0;entryY=0.5;entryDx=0;entryDy=0;" parent="1" source="gv2Mm_Y-joqYlYkA0Ygy-109" target="gv2Mm_Y-joqYlYkA0Ygy-115" edge="1">
          <mxGeometry relative="1" as="geometry" />
        </mxCell>
        <mxCell id="gv2Mm_Y-joqYlYkA0Ygy-108" value="&amp;nbsp;nombreTopico&amp;nbsp; " style="edgeLabel;html=1;align=center;verticalAlign=middle;resizable=0;points=[];" parent="gv2Mm_Y-joqYlYkA0Ygy-107" vertex="1" connectable="0">
          <mxGeometry x="-0.5333" y="-3" relative="1" as="geometry">
            <mxPoint x="27" y="-3" as="offset" />
          </mxGeometry>
        </mxCell>
        <mxCell id="gv2Mm_Y-joqYlYkA0Ygy-109" value="&lt;font face=&quot;Verdana&quot;&gt;Topico&lt;/font&gt;" style="ellipse;whiteSpace=wrap;html=1;aspect=fixed;fillColor=#0050ef;strokeColor=#000000;fontColor=#ffffff;" parent="1" vertex="1">
          <mxGeometry x="440" y="640" width="80" height="80" as="geometry" />
        </mxCell>
        <mxCell id="gv2Mm_Y-joqYlYkA0Ygy-110" value="String" style="rounded=0;whiteSpace=wrap;html=1;strokeColor=#000000;fillColor=#fdc502;" parent="1" vertex="1">
          <mxGeometry x="205" y="630" width="70" height="20" as="geometry" />
        </mxCell>
        <mxCell id="gv2Mm_Y-joqYlYkA0Ygy-111" value="String" style="rounded=0;whiteSpace=wrap;html=1;strokeColor=#000000;fillColor=#fdc502;" parent="1" vertex="1">
          <mxGeometry x="610" y="540" width="70" height="20" as="geometry" />
        </mxCell>
        <mxCell id="gv2Mm_Y-joqYlYkA0Ygy-112" value="String" style="rounded=0;whiteSpace=wrap;html=1;strokeColor=#000000;fillColor=#fdc502;" parent="1" vertex="1">
          <mxGeometry x="450" y="420" width="70" height="20" as="geometry" />
        </mxCell>
        <mxCell id="gv2Mm_Y-joqYlYkA0Ygy-113" value="String" style="rounded=0;whiteSpace=wrap;html=1;strokeColor=#000000;fillColor=#fdc502;" parent="1" vertex="1">
          <mxGeometry x="540" y="440" width="70" height="20" as="geometry" />
        </mxCell>
        <mxCell id="gv2Mm_Y-joqYlYkA0Ygy-114" value="String" style="rounded=0;whiteSpace=wrap;html=1;strokeColor=#000000;fillColor=#fdc502;" parent="1" vertex="1">
          <mxGeometry x="600" y="480" width="70" height="20" as="geometry" />
        </mxCell>
        <mxCell id="gv2Mm_Y-joqYlYkA0Ygy-115" value="String" style="rounded=0;whiteSpace=wrap;html=1;strokeColor=#000000;fillColor=#fdc502;" parent="1" vertex="1">
          <mxGeometry x="640" y="670" width="70" height="20" as="geometry" />
        </mxCell>
        <mxCell id="LyRlidcJ_Eah3yaCNYOC-1" value="String" style="rounded=0;whiteSpace=wrap;html=1;strokeColor=#000000;fillColor=#fdc502;" vertex="1" parent="1">
          <mxGeometry x="590" y="580" width="70" height="20" as="geometry" />
        </mxCell>
        <mxCell id="LyRlidcJ_Eah3yaCNYOC-2" style="rounded=0;orthogonalLoop=1;jettySize=auto;html=1;exitX=0.921;exitY=0.754;exitDx=0;exitDy=0;entryX=0;entryY=0.25;entryDx=0;entryDy=0;exitPerimeter=0;" edge="1" parent="1" source="gv2Mm_Y-joqYlYkA0Ygy-106" target="LyRlidcJ_Eah3yaCNYOC-1">
          <mxGeometry relative="1" as="geometry">
            <mxPoint x="530" y="550" as="sourcePoint" />
            <mxPoint x="620" y="555" as="targetPoint" />
          </mxGeometry>
        </mxCell>
        <mxCell id="LyRlidcJ_Eah3yaCNYOC-3" value="fecha" style="edgeLabel;html=1;align=center;verticalAlign=middle;resizable=0;points=[];" vertex="1" connectable="0" parent="LyRlidcJ_Eah3yaCNYOC-2">
          <mxGeometry x="0.4116" relative="1" as="geometry">
            <mxPoint x="-28" y="-8" as="offset" />
          </mxGeometry>
        </mxCell>
      </root>
    </mxGraphModel>
  </diagram>
</mxfile>
